# xmcd
# 
# Track frame offsets:
#   150
#   18168
#   35509
#   49843
#   64176
#   81339
#   94935
#   111791
#   126215
#   140653
#   156425
#   174084
# 
# Disc length: 2512 seconds
# 
# Revision: 1
# Processed by: cddbd v1.5.2PL0 Copyright (c) Steve Scherf et al.
# Submitted via: VOLTOCDX V1.0.22 
# 
DISCID=a009ce0c
DTITLE=DeAnne Moore - Never Too Late
DYEAR=2008
DGENRE=country
TTITLE0=How You Say Goodbye
TTITLE1=Never Too Late
TTITLE2=Cowboy Talkin'
TTITLE3=Don't Kiss Me
TTITLE4=Fool For Love
TTITLE5=I Need A Wife
TTITLE6=Better Off Alone
TTITLE7=Spring Chicken
TTITLE8=Love Is A Game
TTITLE9=I Ain't Through
TTITLE10=Wrote That In Blue
TTITLE11=Mama's Green Eyes
EXTD=
EXTT0=
EXTT1=
EXTT2=
EXTT3=
EXTT4=
EXTT5=
EXTT6=
EXTT7=
EXTT8=
EXTT9=
EXTT10=
EXTT11=
PLAYORDER=
